<svg xmlns="http://www.w3.org/2000/svg" viewBox="0 0 640 450"><defs><linearGradient id="wood" x2=".4" y2="1"><stop stop-color="#bf8755"/><stop offset=".5" stop-color="#986134"/><stop offset="1" stop-color="#754424"/></linearGradient><linearGradient id="gold" x2="1" y2="1"><stop stop-color="#ffe4ac"/><stop offset=".35" stop-color="#c0944d"/><stop offset=".6" stop-color="#f7d494"/><stop offset="1" stop-color="#8a602e"/></linearGradient><radialGradient id="jade"><stop stop-color="#619a78"/><stop offset=".8" stop-color="#2c634e"/><stop offset="1" stop-color="#204435"/></radialGradient></defs><path d="m61 180 252 77 263-74-7-39-245-69-254 66Z" fill="#704322" stroke="#573b27" stroke-width="7"/><path d="m69 144 255-69 245 69-255 78Z" fill="url(#wood)" stroke="url(#gold)" stroke-width="9"/><g stroke="#efd0a0" opacity=".22" fill="none"><path d="m97 146 223-59 220 59-225 64Z"/><path d="m149 132 213 64m-144-82 211 62M101 148l206 61m-89-25 230-66m-179 82 233-66"/></g><path d="m108 132 28-8 240 78-29 9Zm335-28 26 8-240 77-29-9Z" fill="url(#gold)"/><path d="m75 162 239 72 255-73v18l-255 73-239-72Z" fill="url(#gold)"/><ellipse cx="316" cy="151" rx="75" ry="42" fill="url(#gold)" stroke="#966a35" stroke-width="4"/><ellipse cx="316" cy="151" rx="61" ry="32" fill="url(#jade)" stroke="#e1bf7a" stroke-width="3"/><path d="m331 124 6 3 1 8-5 7-3 10-8 13-10 8-9 3-4-5 3-11 6-11 8-8 6-10Z" fill="url(#gold)" stroke="#ffe7b4" stroke-width="1.8"/><g fill="#fee7b5"><circle cx="87" cy="145" r="4"/><circle cx="325" cy="88" r="4"/><circle cx="552" cy="145" r="4"/><circle cx="315" cy="209" r="4"/></g><path d="m294 230 37 1-1 23-36-1Z" fill="url(#gold)" stroke="#956b36" stroke-width="3"/></svg>
